<svg id="Layer_1" data-name="Layer 1" xmlns="http://www.w3.org/2000/svg" xmlns:xlink="http://www.w3.org/1999/xlink" viewBox="0 0 651.76 539.1"><defs><style>.cls-1,.cls-2,.cls-3,.cls-4{fill-rule:evenodd;}.cls-1{fill:url(#New_Gradient_Swatch_2);}.cls-2{fill:url(#New_Gradient_Swatch_3);}.cls-3{fill:url(#New_Gradient_Swatch_3-2);}.cls-4{opacity:0.3;}.cls-5{font-size:99.26px;fill:#fff;font-family:ConthraxSb-Regular, Conthrax;}</style><linearGradient id="New_Gradient_Swatch_2" x1="6812.42" y1="7164.21" x2="7442.42" y2="7164.21" gradientUnits="userSpaceOnUse"><stop offset="0.1" stop-color="#644698"/><stop offset="0.4" stop-color="#df3d8f"/><stop offset="0.6" stop-color="#e03135"/><stop offset="0.9" stop-color="#f9c338"/></linearGradient><linearGradient id="New_Gradient_Swatch_3" x1="7338.57" y1="7379.78" x2="7191.2" y2="7235.44" gradientUnits="userSpaceOnUse"><stop offset="0" stop-color="#fff"/><stop offset="1" stop-color="#fff" stop-opacity="0"/></linearGradient><linearGradient id="New_Gradient_Swatch_3-2" x1="7396.41" y1="7302.88" x2="7081.71" y2="7170.01" xlink:href="#New_Gradient_Swatch_3"/></defs><path class="cls-1" d="M6940.21,7089.3c8.14,0,14.73-6,14.73-13.44a12.35,12.35,0,0,0-1.19-5.3c13.74-9.7,31.84-21.12,52.76-33.53,15.46-9.18,32.45-18.89,50.34-28.86-1.91-21.55,25.57-34.35,43.6-20.82-7.16-8.56-19.7-11.82-30.69-8L7051.3,6970c-20.5-10.3-44.79,4.05-44.79,26.47v29.08c-24.78,14.81-45.35,28.1-59,38.62a15.74,15.74,0,0,0-7.32-1.77c-8.14,0-14.73,6-14.73,13.43S6932.07,7089.3,6940.21,7089.3Zm0-20.41c4.22,0,7.64,3.12,7.64,7s-3.42,7-7.64,7-7.64-3.12-7.64-7S6936,7068.89,6940.21,7068.89Zm143.27-75c7.43,0,13.45,5.49,13.45,12.27s-6,12.26-13.45,12.26S7070,7013,7070,7006.18,7076.06,6993.91,7083.48,6993.91Zm113.4,46.35c8.05,0,14.57,6,14.57,13.3s-6.52,13.29-14.57,13.29-14.58-6-14.58-13.29S7188.83,7040.26,7196.88,7040.26Zm129.09,59c0,7.91-7,14.32-15.7,14.32s-15.71-6.41-15.71-14.32,7-14.32,15.71-14.32S7326,7091.34,7326,7099.25Zm58.86,91.35L7051.3,7358.23c-22.08,11.1-44.79-5.45-44.79-27.36-75.08,22.5-117,18.23-60.59-19.48-35.53,26.78-29.22,36.84,60.59,10.77v-28.71c-55.91,27.94-64.1,37.19-37.28,32.44-29.56,7.25-44.39,5.74,37.28-43.65v-10.08c83.82-49.74,212.75-115.49,286.29-150.35,14.36,9.26,34.53,5.37,43.54-8.52l48.49,24.37A29.46,29.46,0,0,1,7384.83,7190.6Zm-378.32-67.44v7.58c-23.9,14.28-43.88,27.15-57.49,37.48a15.74,15.74,0,0,0-8.45-2.42c-8.13,0-14.73,6-14.73,13.43s6.6,13.44,14.73,13.44,14.74-6,14.74-13.44a12.29,12.29,0,0,0-.71-4.11c13.63-9.57,31.42-20.77,51.91-32.93,45.93-27.26,105.39-59.32,161.87-88.47-.09-21.52,26.63-33.54,45.24-21.19-10.57-11.85-30.25-12.81-42.14-2.1L7109,6999.05a22.52,22.52,0,0,1,1.16,7.13c0,13.46-12,24.37-26.72,24.37a28.67,28.67,0,0,1-12.55-2.86c-23.07,12.69-45,25.1-64.42,36.66v10.07c-81.67,49.39-66.84,50.9-37.28,43.66-26.82,4.74-18.63-4.51,37.28-32.45v28.71c-88.76,25.77-96,16.24-61.82-9.84C6890.11,7141.45,6932,7145.49,7006.51,7123.16Zm-65.94,63c-4.22,0-7.64-3.12-7.64-7s3.42-7,7.64-7,7.64,3.12,7.64,7S6944.79,7186.2,6940.57,7186.2Zm65.94,42.11v5.09c-25,14.94-45.73,28.35-59.35,38.91a15.92,15.92,0,0,0-6.93-1.57c-8.14,0-14.73,6-14.73,13.43s6.59,13.44,14.73,13.44,14.73-6,14.73-13.44a12.35,12.35,0,0,0-1.38-5.68c13.76-9.72,31.93-21.18,52.93-33.64,79.16-47,198.54-108.23,273.52-144.26-1.06-20.18,21.72-35,42.46-26.61-14.95-10.68-37.14-6.24-45.73,9.37l-51.69-26c-2,12.55-13.87,22.19-28.19,22.19a30.27,30.27,0,0,1-16.4-4.74c-60,30.75-124.75,65.48-174,94.69v10.08c-81.67,49.39-66.84,50.9-37.28,43.65-26.82,4.75-18.63-4.51,37.28-32.44v28.71c-88.75,25.77-96,16.24-61.82-9.84C6890.12,7246.61,6932,7250.65,7006.51,7228.31Zm-66.28,62.83c-4.22,0-7.64-3.12-7.64-7s3.42-7,7.64-7,7.64,3.12,7.64,7S6944.45,7291.14,6940.23,7291.14Z" transform="translate(-6856.77 -6966.63)"/><path class="cls-2" d="M7377.36,7178.24l-333.53,167.63c-11,5.55-21.85-3.52-21.85-14.1v-68.68c83.55-48.41,201.67-108.5,270.82-141.28a32.81,32.81,0,0,0,31.86,1.72l52.7,26.49C7388.74,7155.74,7388.74,7172.52,7377.36,7178.24Zm-196.88-103.43c-53.88,27.63-111.63,58.46-158.5,85.62v75.35c78.41-45.45,187.27-101.16,257.53-134.94l-60.82-30.57C7209.18,7080.59,7192.52,7082.56,7180.48,7074.81Zm-109.55-47.12c-17.14,9.43-33.62,18.7-49,27.58v77.85c43.38-25.14,96.08-53.43,146.4-79.4a24.43,24.43,0,0,1,1.32-8.07l-61.25-30.78C7102.7,7028.61,7085,7034.54,7070.93,7027.69Zm-27.1-45.3c-11-5.55-21.85,3.52-21.85,14.11V7028c11.08-6.42,22.77-13.05,34.87-19.79a22.39,22.39,0,0,1,5.22-16.61Z" transform="translate(-6856.77 -6966.63)"/><path class="cls-3" d="M7022,7263.09c22.07-12.79,46.56-26.39,71.91-40.09a477.81,477.81,0,0,1-71.91,93.46Zm40.09-271.53-18.24-9.17c-11-5.55-21.85,3.52-21.85,14.11V7028c11.08-6.42,22.77-13.05,34.87-19.79A22.39,22.39,0,0,1,7062.07,6991.56ZM7022,7235.78c27.83-16.13,59.51-33.56,91.92-50.84a440.81,440.81,0,0,0,31.11-91.76c-43,22.46-86.33,46-123,67.25Zm49-208.09c-17.14,9.43-33.62,18.7-49,27.58v77.85c38.28-22.19,83.8-46.81,128.56-70.14q1.85-12.63,3-25.46l-45.07-22.65C7102.7,7028.61,7085,7034.54,7070.93,7027.69Z" transform="translate(-6856.77 -6966.63)"/><path class="cls-4" d="M7028,7167.89c50.4-28.56,101.52-56.48,153.17-83.11,16.71,8.16,37.78.35,43.29-16.44.62,20.9-23.72,34.91-44.12,25.32C7139.09,7113.29,7084.29,7140.83,7028,7167.89Zm81.48-148.38c-5.05,14.23-22.35,21.43-37.35,15.86q-27.48,15.1-54.72,30.53c18-8.66,36.13-16.34,53.45-24.82C7087.8,7047.19,7106.76,7036.27,7109.43,7019.51Zm185.13,111.95c-90.8,43.5-183.67,91.17-269.86,141.76,81.88-45.78,199.8-98.31,271.38-131.86,20,7.61,42.51-6.08,41.91-26.26C7332.47,7132,7311.27,7139.74,7294.56,7131.46Z" transform="translate(-6856.77 -6966.63)"/><text class="cls-5" transform="translate(0 512.1)">CREATIVE</text></svg>